<svg xmlns="http://www.w3.org/2000/svg" xmlns:xlink="http://www.w3.org/1999/xlink" width="250" zoomAndPan="magnify" viewBox="0 0 187.5 74.999997" height="100" preserveAspectRatio="xMidYMid meet" version="1.0"><defs><g/><clipPath id="8f7a3a0ce9"><path d="M 0.00390625 13.667969 L 186.960938 13.667969 L 186.960938 58.558594 L 0.00390625 58.558594 Z M 0.00390625 13.667969 " clip-rule="nonzero"/></clipPath><clipPath id="84a40ba1b9"><path d="M 12.925781 20.84375 L 109.933594 20.84375 L 109.933594 51.632812 L 12.925781 51.632812 Z M 12.925781 20.84375 " clip-rule="nonzero"/></clipPath></defs><g clip-path="url(#8f7a3a0ce9)"><path stroke-linecap="butt" transform="matrix(0.469747, 0, 0, 0.469747, 0.00236706, 13.667135)" fill="none" stroke-linejoin="miter" d="M 0.00327665 0.0017749 L 398.065316 0.0017749 L 398.065316 95.56527 L 0.00327665 95.56527 Z M 0.00327665 0.0017749 " stroke="#000000" stroke-width="9.554155" stroke-opacity="1" stroke-miterlimit="4"/></g><g clip-path="url(#84a40ba1b9)"><path fill="#000000" d="M 12.925781 20.84375 L 109.992188 20.84375 L 109.992188 51.632812 L 12.925781 51.632812 Z M 12.925781 20.84375 " fill-opacity="1" fill-rule="nonzero"/></g><g fill="#ffffff" fill-opacity="1"><g transform="translate(16.257232, 41.035154)"><g><path d="M 1.507812 0 L 2.808594 0 L 2.808594 -4.65625 L 4.285156 -4.65625 C 4.683594 -4.65625 5.039062 -4.683594 5.363281 -4.742188 L 8.039062 0 L 9.546875 0 L 6.574219 -5.214844 C 7.167969 -5.601562 7.582031 -6.191406 7.875 -6.976562 L 9.148438 -10.34375 L 7.773438 -10.34375 L 6.707031 -7.492188 C 6.296875 -6.367188 5.6875 -5.894531 4.285156 -5.894531 L 2.808594 -5.894531 L 2.808594 -10.34375 L 1.507812 -10.34375 Z M 1.507812 0 "/></g></g></g><g fill="#ffffff" fill-opacity="1"><g transform="translate(27.484658, 41.035154)"><g><path d="M 0.25 0 L 1.640625 0 L 2.585938 -2.347656 L 7.625 -2.347656 L 8.601562 0 L 9.976562 0 L 5.71875 -10.34375 L 4.507812 -10.34375 Z M 3.089844 -3.5625 L 5.113281 -8.527344 L 7.136719 -3.5625 Z M 3.089844 -3.5625 "/></g></g></g><g fill="#ffffff" fill-opacity="1"><g transform="translate(38.830263, 41.035154)"><g><path d="M 4.375 0 L 5.585938 0 L 9.695312 -10.34375 L 8.320312 -10.34375 L 6.589844 -5.984375 L 4.980469 -1.875 L 3.355469 -5.984375 L 1.640625 -10.34375 L 0.25 -10.34375 Z M 4.375 0 "/></g></g></g><g fill="#ffffff" fill-opacity="1"><g transform="translate(49.895196, 41.035154)"><g><path d="M 0.25 0 L 1.640625 0 L 2.585938 -2.347656 L 7.625 -2.347656 L 8.601562 0 L 9.976562 0 L 5.71875 -10.34375 L 4.507812 -10.34375 Z M 3.089844 -3.5625 L 5.113281 -8.527344 L 7.136719 -3.5625 Z M 3.089844 -3.5625 "/></g></g></g><g fill="#ffffff" fill-opacity="1"><g transform="translate(61.240801, 41.035154)"><g><path d="M 1.507812 0 L 2.792969 0 L 2.792969 -8.097656 L 8.511719 0 L 9.722656 0 L 9.722656 -10.34375 L 8.453125 -10.34375 L 8.453125 -2.246094 L 2.734375 -10.34375 L 1.507812 -10.34375 Z M 1.507812 0 "/></g></g></g><g fill="#ffffff" fill-opacity="1"><g transform="translate(73.590927, 41.035154)"><g><path d="M 0.25 0 L 1.640625 0 L 2.585938 -2.347656 L 7.625 -2.347656 L 8.601562 0 L 9.976562 0 L 5.71875 -10.34375 L 4.507812 -10.34375 Z M 3.089844 -3.5625 L 5.113281 -8.527344 L 7.136719 -3.5625 Z M 3.089844 -3.5625 "/></g></g></g><g fill="#ffffff" fill-opacity="1"><g transform="translate(84.936535, 41.035154)"><g><path d="M 1.507812 0 L 2.792969 0 L 2.792969 -8.097656 L 8.511719 0 L 9.722656 0 L 9.722656 -10.34375 L 8.453125 -10.34375 L 8.453125 -2.246094 L 2.734375 -10.34375 L 1.507812 -10.34375 Z M 1.507812 0 "/></g></g></g><g fill="#ffffff" fill-opacity="1"><g transform="translate(97.286662, 41.035154)"><g><path d="M 4.003906 0 L 5.304688 0 L 5.304688 -9.101562 L 8.792969 -9.101562 L 8.792969 -10.34375 L 0.503906 -10.34375 L 0.503906 -9.101562 L 4.003906 -9.101562 Z M 4.003906 0 "/></g></g></g><g fill="#000000" fill-opacity="1"><g transform="translate(112.856068, 41.239175)"><g><path d="M 6.027344 0.222656 C 9.589844 0.222656 11.820312 -2.363281 11.496094 -6 L 5.511719 -6 L 5.511719 -3.902344 L 8.363281 -3.902344 C 8.066406 -3.027344 7.242188 -2.4375 6.058594 -2.4375 C 4.402344 -2.4375 3.441406 -3.605469 3.441406 -5.171875 C 3.441406 -6.796875 4.492188 -7.90625 6.027344 -7.90625 C 6.945312 -7.90625 7.726562 -7.507812 8.128906 -6.855469 L 11.304688 -6.855469 C 10.699219 -9.117188 8.601562 -10.566406 5.984375 -10.566406 C 2.734375 -10.566406 0.503906 -8.347656 0.503906 -5.171875 C 0.503906 -1.980469 2.75 0.222656 6.027344 0.222656 Z M 6.027344 0.222656 "/></g></g></g><g fill="#000000" fill-opacity="1"><g transform="translate(124.854164, 41.239175)"><g><path d="M 1.09375 0 L 8.304688 0 L 8.304688 -2.761719 L 4.078125 -2.761719 L 4.078125 -10.34375 L 1.09375 -10.34375 Z M 1.09375 0 "/></g></g></g><g fill="#000000" fill-opacity="1"><g transform="translate(133.527665, 41.239175)"><g><path d="M 6.132812 0.222656 C 9.425781 0.222656 11.761719 -2.007812 11.761719 -5.171875 C 11.761719 -8.335938 9.425781 -10.566406 6.132812 -10.566406 C 2.835938 -10.566406 0.503906 -8.335938 0.503906 -5.171875 C 0.503906 -2.007812 2.835938 0.222656 6.132812 0.222656 Z M 3.53125 -5.171875 C 3.53125 -6.722656 4.609375 -7.800781 6.132812 -7.800781 C 7.667969 -7.800781 8.734375 -6.722656 8.734375 -5.171875 C 8.734375 -3.621094 7.667969 -2.542969 6.132812 -2.542969 C 4.609375 -2.542969 3.53125 -3.621094 3.53125 -5.171875 Z M 3.53125 -5.171875 "/></g></g></g><g fill="#000000" fill-opacity="1"><g transform="translate(145.806507, 41.239175)"><g><path d="M 1.09375 0 L 6.398438 0 C 8.496094 0 9.960938 -1.183594 9.960938 -2.882812 C 9.960938 -3.976562 9.367188 -4.863281 8.394531 -5.289062 C 9.191406 -5.75 9.648438 -6.574219 9.648438 -7.566406 C 9.648438 -9.265625 8.289062 -10.34375 6.132812 -10.34375 L 1.09375 -10.34375 Z M 4.019531 -2.214844 L 4.019531 -4.152344 L 5.820312 -4.152344 C 6.53125 -4.152344 6.929688 -3.796875 6.929688 -3.191406 C 6.929688 -2.570312 6.53125 -2.214844 5.820312 -2.214844 Z M 4.019531 -6.28125 L 4.019531 -8.140625 L 5.570312 -8.140625 C 6.265625 -8.140625 6.648438 -7.800781 6.648438 -7.210938 C 6.648438 -6.605469 6.265625 -6.28125 5.570312 -6.28125 Z M 4.019531 -6.28125 "/></g></g></g><g fill="#000000" fill-opacity="1"><g transform="translate(156.194024, 41.239175)"><g><path d="M 0.0742188 0 L 3.234375 0 L 3.796875 -1.464844 L 7.328125 -1.464844 L 7.890625 0 L 11.066406 0 L 7.046875 -10.34375 L 4.09375 -10.34375 Z M 4.417969 -3.648438 L 5.570312 -6.855469 L 6.722656 -3.648438 Z M 4.417969 -3.648438 "/></g></g></g><g fill="#000000" fill-opacity="1"><g transform="translate(167.335112, 41.239175)"><g><path d="M 1.09375 0 L 8.304688 0 L 8.304688 -2.761719 L 4.078125 -2.761719 L 4.078125 -10.34375 L 1.09375 -10.34375 Z M 1.09375 0 "/></g></g></g></svg>